<?xml version="1.0" encoding="utf-8"?>
<!-- Generator: Adobe Illustrator 22.0.0, SVG Export Plug-In . SVG Version: 6.00 Build 0)  -->
<svg version="1.1" id="Layer_1" xmlns="http://www.w3.org/2000/svg" xmlns:xlink="http://www.w3.org/1999/xlink" x="0px" y="0px"
	 viewBox="0 0 216 60.2" style="enable-background:new 0 0 216 60.2;" xml:space="preserve">
<style type="text/css">
	.st0{fill:#FFFFFF;}
</style>
<g>
	<path class="st0" d="M71,20h11.7v4h-7.7v3.9h7.7v3.9h-7.7v5.7h7.7v4H71V20z"/>
	<path class="st0" d="M90.9,20h11.9v4h-3.9v17.5h-4.2V24h-3.8V20z"/>
	<path class="st0" d="M110.7,20h4l3.1,13.7l3.8-13.7h3.4l3.9,13.7l3.1-13.7h4l-4.8,21.5h-3.9l-4-13.9l-3.9,13.9h-3.9L110.7,20z"/>
	<path class="st0" d="M155,19.5c3,0,5.7,1.1,7.9,3.3c2.2,2.2,3.3,4.9,3.3,8.1c0,3.1-1.1,5.8-3.2,8c-2.2,2.2-4.8,3.3-7.9,3.3
		c-3.2,0-5.9-1.1-8.1-3.4c-2.1-2.2-3.2-4.9-3.2-8c0-2.1,0.5-3.9,1.5-5.7c1-1.7,2.4-3.1,4.1-4.1S153,19.5,155,19.5z M155,23.5
		c-2,0-3.7,0.7-5,2.1c-1.4,1.4-2,3.1-2,5.3c0,2.4,0.9,4.3,2.6,5.6c1.3,1.1,2.9,1.6,4.6,1.6c1.9,0,3.6-0.7,5-2.1
		c1.4-1.4,2.1-3.1,2.1-5.2c0-2-0.7-3.8-2.1-5.2C158.7,24.2,157,23.5,155,23.5z"/>
	<path class="st0" d="M176.2,20h4.3c2.4,0,4.1,0.2,5.1,0.6c1,0.4,1.8,1.1,2.4,2.1c0.6,1,0.9,2.2,0.9,3.5c0,1.4-0.3,2.6-1,3.5
		s-1.7,1.7-3.1,2.2l5.1,9.6h-4.5l-4.8-9.1h-0.4v9.1h-4.1V20z M180.3,28.4h1.3c1.3,0,2.2-0.2,2.7-0.5c0.5-0.3,0.7-0.9,0.7-1.7
		c0-0.5-0.1-0.9-0.4-1.2c-0.2-0.3-0.6-0.6-1-0.7c-0.4-0.2-1.2-0.2-2.2-0.2h-1.1V28.4z"/>
	<path class="st0" d="M199.3,20h4.1v7.4l5.8-7.4h4.9l-7.5,9.6l8.2,11.9h-4.9l-6.6-9.6v9.6h-4.1V20z"/>
</g>
<circle class="st0" cx="10.1" cy="9.9" r="9.1"/>
<circle class="st0" cx="48.8" cy="9.9" r="9.1"/>
<circle class="st0" cx="10.1" cy="49.9" r="9.1"/>
<circle class="st0" cx="48.8" cy="49.9" r="9.1"/>
<polygon class="st0" points="51.5,54.3 12.2,14.9 12.2,49.9 8.1,49.9 8.1,5 47.4,44.3 47.4,10.3 51.5,10.3 "/>
</svg>
